<svg width="24" height="24" viewBox="0 0 24 24" fill="none" xmlns="http://www.w3.org/2000/svg">
<path d="M22.8602 11.5728C22.6637 11.3043 17.9808 5 11.9999 5C6.01902 5 1.33593 11.3043 1.13961 11.5725C0.953465 11.8272 0.953465 12.1726 1.13961 12.4272C1.33593 12.6957 6.01902 19 11.9999 19C17.9808 19 22.6637 12.6956 22.8602 12.4274C23.0466 12.1728 23.0466 11.8272 22.8602 11.5728ZM11.9999 17.5517C7.59435 17.5517 3.77867 13.3674 2.64915 11.9995C3.77721 10.6304 7.58489 6.44827 11.9999 6.44827C16.4052 6.44827 20.2207 10.6318 21.3507 12.0005C20.2226 13.3696 16.4149 17.5517 11.9999 17.5517Z" fill="#303030" fill-opacity="1"/>
<path d="M10 12L12 9L14 12L12 15L10 12Z" fill="#303030" />
</svg>
